<svg width="24" height="20" viewBox="0 0 24 20" fill="none" xmlns="http://www.w3.org/2000/svg">
<path d="M18.5454 -0.150488H18.5452L5.45475 -0.150488L5.45453 -0.150488C3.26144 -0.147237 1.48903 1.66193 1.48638 3.88892V3.8891V8.95931C0.46004 9.71651 -0.14948 10.9294 -0.15 12.2224V12.2224V18.8891C-0.15 19.5829 0.402931 20.15 1.09075 20.15H3.27275C3.96057 20.15 4.5135 19.5829 4.5135 18.8891V17.3724H19.4865V18.8891C19.4865 19.5829 20.0394 20.15 20.7272 20.15H22.9093C23.5971 20.15 24.15 19.5829 24.15 18.8891V12.2224V12.2224C24.1495 10.9299 23.5399 9.71701 22.5136 8.95934V3.88857V3.8884C22.511 1.66142 20.7386 -0.147779 18.5454 -0.150488ZM2.87661 4.03909H2.87692L2.87712 3.8893C2.87906 2.436 4.03428 1.26296 5.4544 1.26149L18.545 1.26149C19.9653 1.26346 21.1209 2.43609 21.1224 3.88925V8.30212C20.8633 8.23651 20.5985 8.19778 20.3316 8.18668V7.22243C20.3316 5.91513 19.2904 4.85003 17.9996 4.85003H14.7269C13.4367 4.85003 12.3949 5.91456 12.3949 7.22243V8.18337H11.6041V7.22243C11.6041 5.91513 10.5629 4.85003 9.27211 4.85003H5.99936C4.70918 4.85003 3.66736 5.91456 3.66736 7.22243V8.18668C3.4005 8.19777 3.13549 8.23648 2.87661 8.30208V4.03909ZM18.9404 8.18337H13.7861V7.22243C13.7861 6.68912 14.2099 6.26149 14.7269 6.26149H17.9996C18.5166 6.26149 18.9404 6.68912 18.9404 7.22243V8.18337ZM10.2129 8.18337H5.05861V7.22243C5.05861 6.68912 5.48239 6.26149 5.99936 6.26149H9.27211C9.78908 6.26149 10.2129 6.68912 10.2129 7.22243V8.18337ZM1.24075 12.2226C1.24075 12.2226 1.24075 12.2226 1.24075 12.2225C1.24273 10.7693 2.39793 9.5963 3.81802 9.59482H20.1814C21.6017 9.59679 22.7573 10.7694 22.7587 12.2226V12.6282H1.24075L1.24075 12.2226ZM3.12275 18.7391H1.24075V17.3724H3.12275V18.7391ZM1.24075 15.9615V14.0391H22.7593V15.9615H1.24075ZM22.7593 18.7391H20.8772V17.3724H22.7593V18.7391Z" fill="#404040" stroke="#404040" stroke-width="0.3"/>
</svg>
