<svg width="20" height="20" viewBox="0 0 20 20" fill="none" xmlns="http://www.w3.org/2000/svg">
<path d="M17.5 8.75H17.1875V7.1875C17.1872 6.93894 17.0884 6.70065 16.9126 6.52489C16.7369 6.34913 16.4986 6.25027 16.25 6.25H15.8799C15.8157 6.06773 15.6967 5.9098 15.5391 5.79789C15.3816 5.68599 15.1932 5.62559 15 5.625H13.75C13.5014 5.62527 13.2631 5.72413 13.0874 5.89989C12.9116 6.07565 12.8128 6.31394 12.8125 6.5625V8.4375H7.1875V6.5625C7.18723 6.31394 7.08837 6.07565 6.91261 5.89989C6.73686 5.72413 6.49856 5.62527 6.25 5.625H5C4.80676 5.62559 4.61843 5.68599 4.46089 5.79789C4.30334 5.9098 4.18429 6.06773 4.12009 6.25H3.75C3.50144 6.25027 3.26315 6.34913 3.08739 6.52489C2.91163 6.70065 2.81277 6.93894 2.8125 7.1875V8.75H2.5C2.25144 8.75027 2.01315 8.84913 1.83739 9.02489C1.66163 9.20064 1.56277 9.43894 1.5625 9.6875V10.3125C1.56277 10.5611 1.66163 10.7994 1.83739 10.9751C2.01315 11.1509 2.25144 11.2497 2.5 11.25H2.8125V12.8125C2.81277 13.0611 2.91163 13.2994 3.08739 13.4751C3.26315 13.6509 3.50144 13.7497 3.75 13.75H4.12009C4.18429 13.9323 4.30334 14.0902 4.46089 14.2021C4.61843 14.314 4.80676 14.3744 5 14.375H6.25C6.49856 14.3747 6.73686 14.2759 6.91261 14.1001C7.08837 13.9244 7.18723 13.6861 7.1875 13.4375V11.5625H12.8125V13.4375C12.8128 13.6861 12.9116 13.9244 13.0874 14.1001C13.2631 14.2759 13.5014 14.3747 13.75 14.375H15C15.1932 14.3744 15.3816 14.314 15.5391 14.2021C15.6967 14.0902 15.8157 13.9323 15.8799 13.75H16.25C16.4986 13.7497 16.7369 13.6509 16.9126 13.4751C17.0884 13.2994 17.1872 13.0611 17.1875 12.8125V11.25H17.5C17.7486 11.2497 17.9869 11.1509 18.1626 10.9751C18.3384 10.7994 18.4372 10.5611 18.4375 10.3125V9.6875C18.4372 9.43894 18.3384 9.20064 18.1626 9.02489C17.9869 8.84913 17.7486 8.75027 17.5 8.75ZM2.5 10.625C2.41714 10.625 2.33768 10.592 2.27908 10.5334C2.22049 10.4748 2.18755 10.3954 2.1875 10.3125V9.6875C2.18755 9.60464 2.22049 9.52518 2.27908 9.46658C2.33768 9.40799 2.41714 9.37505 2.5 9.375H2.8125V10.625H2.5ZM3.4375 12.8125V7.1875C3.43755 7.10464 3.47049 7.02518 3.52908 6.96658C3.58768 6.90799 3.66714 6.87505 3.75 6.875H4.0625V13.125H3.75C3.66714 13.125 3.58768 13.092 3.52908 13.0334C3.47049 12.9748 3.43755 12.8954 3.4375 12.8125ZM6.5625 13.4375C6.56245 13.5204 6.52951 13.5998 6.47092 13.6584C6.41232 13.717 6.33286 13.75 6.25 13.75H5C4.91714 13.75 4.83768 13.717 4.77908 13.6584C4.72049 13.5998 4.68755 13.5204 4.6875 13.4375V6.5625C4.68755 6.47964 4.72049 6.40018 4.77908 6.34158C4.83768 6.28299 4.91714 6.25005 5 6.25H6.25C6.33286 6.25005 6.41232 6.28299 6.47092 6.34158C6.52951 6.40018 6.56245 6.47964 6.5625 6.5625V13.4375ZM7.1875 10.9375V9.0625H12.8125V10.9375H7.1875ZM15 13.75H13.75C13.6671 13.75 13.5877 13.717 13.5291 13.6584C13.4705 13.5998 13.4375 13.5204 13.4375 13.4375V6.5625C13.4375 6.47964 13.4705 6.40018 13.5291 6.34158C13.5877 6.28299 13.6671 6.25005 13.75 6.25H15C15.0829 6.25005 15.1623 6.28299 15.2209 6.34158C15.2795 6.40018 15.3125 6.47964 15.3125 6.5625V13.4375C15.3125 13.5204 15.2795 13.5998 15.2209 13.6584C15.1623 13.717 15.0829 13.75 15 13.75ZM16.5625 12.8125C16.5625 12.8954 16.5295 12.9748 16.4709 13.0334C16.4123 13.092 16.3329 13.125 16.25 13.125H15.9375V6.875H16.25C16.3329 6.87505 16.4123 6.90799 16.4709 6.96658C16.5295 7.02518 16.5625 7.10464 16.5625 7.1875V12.8125ZM17.8125 10.3125C17.8125 10.3954 17.7795 10.4748 17.7209 10.5334C17.6623 10.592 17.5829 10.625 17.5 10.625H17.1875V9.375H17.5C17.5829 9.37505 17.6623 9.40799 17.7209 9.46658C17.7795 9.52518 17.8125 9.60464 17.8125 9.6875V10.3125Z" fill="#404040"/>
</svg>
