<svg width="20" height="20" viewBox="0 0 20 20" fill="none" xmlns="http://www.w3.org/2000/svg">
<path d="M18.1251 1.5625H6.87507C6.79219 1.5625 6.71271 1.59542 6.6541 1.65403C6.5955 1.71263 6.56257 1.79212 6.56257 1.875V10.9375H3.43757C3.18902 10.9378 2.95072 11.0366 2.77496 11.2124C2.59921 11.3881 2.50035 11.6264 2.50007 11.875C2.50109 12.0365 2.54434 12.195 2.62551 12.3346C2.44416 12.4459 2.30709 12.6168 2.23772 12.8179C2.16835 13.0191 2.17098 13.2381 2.24517 13.4375H1.87507C1.83043 13.4375 1.78631 13.4471 1.74568 13.4656C1.70505 13.4841 1.66886 13.5111 1.63955 13.5448C1.61023 13.5785 1.58847 13.618 1.57573 13.6608C1.563 13.7036 1.55957 13.7487 1.5657 13.7929L2.17195 18.1679C2.1823 18.2426 2.21932 18.311 2.27618 18.3606C2.33304 18.4101 2.4059 18.4375 2.48132 18.4375H18.1251C18.208 18.4375 18.2874 18.4046 18.346 18.346C18.4047 18.2874 18.4376 18.2079 18.4376 18.125V1.875C18.4376 1.79212 18.4047 1.71263 18.346 1.65403C18.2874 1.59542 18.208 1.5625 18.1251 1.5625ZM7.18757 2.1875H17.8126V4.0625H7.18757V2.1875ZM7.18757 4.6875H17.8126V16.5625H9.26329L9.64695 13.7929C9.65308 13.7487 9.64965 13.7036 9.63692 13.6608C9.62418 13.618 9.60242 13.5785 9.5731 13.5448C9.54379 13.5111 9.5076 13.4841 9.46697 13.4656C9.42634 13.4471 9.38222 13.4375 9.33757 13.4375H8.47101C8.37837 13.0722 8.1629 12.75 7.86076 12.5248C7.98894 12.3927 8.07534 12.2258 8.10914 12.0449C8.14294 11.8641 8.12265 11.6772 8.0508 11.5078C7.97895 11.3384 7.85873 11.1939 7.70519 11.0925C7.55164 10.991 7.3716 10.9371 7.18757 10.9375V4.6875ZM6.87507 12.8125C7.07543 12.8132 7.27115 12.8728 7.43786 12.9839C7.60457 13.0951 7.73488 13.2528 7.81257 13.4375H5.93757C6.01526 13.2528 6.14558 13.0951 6.31229 12.9839C6.47899 12.8728 6.67472 12.8132 6.87507 12.8125ZM3.43757 11.5625H7.18757C7.27045 11.5625 7.34994 11.5954 7.40855 11.654C7.46715 11.7126 7.50007 11.7921 7.50007 11.875C7.50007 11.9579 7.46715 12.0374 7.40855 12.096C7.34994 12.1546 7.27045 12.1875 7.18757 12.1875H3.43757C3.35469 12.1875 3.27521 12.1546 3.2166 12.096C3.158 12.0374 3.12507 11.9579 3.12507 11.875C3.12507 11.7921 3.158 11.7126 3.2166 11.654C3.27521 11.5954 3.35469 11.5625 3.43757 11.5625ZM2.81257 13.125C2.81265 13.0421 2.8456 12.9627 2.90419 12.9041C2.96277 12.8455 3.04222 12.8126 3.12507 12.8125H5.59098C5.44316 12.9959 5.33678 13.2091 5.27914 13.4375H4.86823C4.82698 13.4368 4.78601 13.4444 4.74776 13.4599C4.70951 13.4754 4.67475 13.4983 4.64555 13.5275C4.61635 13.5566 4.5933 13.5913 4.57777 13.6296C4.56224 13.6678 4.55454 13.7087 4.55514 13.75V15C4.55514 15.0829 4.52221 15.1624 4.46361 15.221C4.405 15.2796 4.32552 15.3125 4.24264 15.3125C4.15976 15.3125 4.08027 15.2796 4.02167 15.221C3.96306 15.1624 3.93014 15.0829 3.93014 15V13.7778C3.93104 13.7686 3.93136 13.7593 3.93136 13.75C3.93136 13.6671 3.89843 13.5876 3.83983 13.529C3.78122 13.4704 3.70174 13.4375 3.61886 13.4375H3.12507C3.04222 13.4374 2.96277 13.4045 2.90419 13.3459C2.8456 13.2873 2.81265 13.2079 2.81257 13.125ZM2.75367 17.8125L2.23395 14.0625H3.30514V15C3.30514 15.2486 3.40391 15.4871 3.57972 15.6629C3.75554 15.8387 3.994 15.9375 4.24264 15.9375C4.49128 15.9375 4.72973 15.8387 4.90555 15.6629C5.08136 15.4871 5.18014 15.2486 5.18014 15V14.0625H8.97864L8.45923 17.8125H2.75367ZM17.8126 17.8125H9.09014L9.17673 17.1875H17.8126V17.8125Z" fill="#404040"/>
<path d="M12.5 14.375C13.2417 14.375 13.9667 14.1551 14.5834 13.743C15.2001 13.331 15.6807 12.7453 15.9645 12.0601C16.2484 11.3748 16.3226 10.6208 16.1779 9.89341C16.0333 9.16598 15.6761 8.4978 15.1517 7.97335C14.6272 7.4489 13.959 7.09175 13.2316 6.94706C12.5042 6.80236 11.7502 6.87662 11.0649 7.16045C10.3797 7.44428 9.79404 7.92493 9.38199 8.54161C8.96993 9.1583 8.75 9.88332 8.75 10.625C8.75111 11.6192 9.14655 12.5724 9.84957 13.2754C10.5526 13.9784 11.5058 14.3739 12.5 14.375ZM12.5 7.5C13.1181 7.5 13.7223 7.68328 14.2362 8.02666C14.7501 8.37004 15.1506 8.8581 15.3871 9.42912C15.6236 10.0001 15.6855 10.6285 15.565 11.2347C15.4444 11.8408 15.1467 12.3977 14.7097 12.8347C14.2727 13.2717 13.7158 13.5694 13.1097 13.69C12.5035 13.8105 11.8751 13.7486 11.3041 13.5121C10.7331 13.2756 10.245 12.8751 9.90166 12.3612C9.55828 11.8473 9.375 11.2431 9.375 10.625C9.37594 9.79649 9.70549 9.00218 10.2913 8.41633C10.8772 7.83049 11.6715 7.50094 12.5 7.5Z" fill="#404040"/>
<path d="M12.5 13.125C12.9945 13.125 13.4778 12.9784 13.8889 12.7037C14.3 12.429 14.6205 12.0385 14.8097 11.5817C14.9989 11.1249 15.0484 10.6222 14.952 10.1373C14.8555 9.65232 14.6174 9.20687 14.2678 8.85723C13.9181 8.5076 13.4727 8.2695 12.9877 8.17304C12.5028 8.07657 12.0001 8.12608 11.5433 8.3153C11.0865 8.50452 10.696 8.82495 10.4213 9.23608C10.1466 9.6472 10 10.1305 10 10.625C10.0008 11.2878 10.2644 11.9233 10.7331 12.3919C11.2018 12.8606 11.8372 13.1242 12.5 13.125ZM12.5 12.5C12.0673 12.4994 11.6481 12.3495 11.3132 12.0754C10.9783 11.8014 10.7484 11.4201 10.6622 10.9961C11.3006 11.1477 11.9683 11.1225 12.5934 10.9232C12.8836 10.8218 13.1896 10.7738 13.4969 10.7813C13.7868 10.7739 14.0758 10.8166 14.3512 10.9076C14.2835 11.3503 14.0596 11.7541 13.7201 12.0462C13.3806 12.3382 12.9478 12.4992 12.5 12.5ZM12.5 8.75C12.9327 8.75057 13.3519 8.90055 13.6868 9.17459C14.0217 9.44862 14.2516 9.8299 14.3378 10.2539C13.6994 10.1023 13.0317 10.1275 12.4066 10.3268C12.1164 10.4282 11.8104 10.4762 11.5031 10.4688C11.2132 10.4761 10.9242 10.4334 10.6488 10.3424C10.7165 9.89972 10.9404 9.49586 11.2799 9.20382C11.6194 8.91177 12.0522 8.7508 12.5 8.75Z" fill="#404040"/>
<path d="M11.5625 2.8125H8.125C8.04212 2.8125 7.96263 2.84542 7.90403 2.90403C7.84542 2.96263 7.8125 3.04212 7.8125 3.125C7.8125 3.20788 7.84542 3.28737 7.90403 3.34597C7.96263 3.40458 8.04212 3.4375 8.125 3.4375H11.5625C11.6454 3.4375 11.7249 3.40458 11.7835 3.34597C11.8421 3.28737 11.875 3.20788 11.875 3.125C11.875 3.04212 11.8421 2.96263 11.7835 2.90403C11.7249 2.84542 11.6454 2.8125 11.5625 2.8125Z" fill="#404040"/>
<path d="M16.5625 3.75C16.9077 3.75 17.1875 3.47018 17.1875 3.125C17.1875 2.77982 16.9077 2.5 16.5625 2.5C16.2173 2.5 15.9375 2.77982 15.9375 3.125C15.9375 3.47018 16.2173 3.75 16.5625 3.75Z" fill="#404040"/>
<path d="M14.6875 3.75C15.0327 3.75 15.3125 3.47018 15.3125 3.125C15.3125 2.77982 15.0327 2.5 14.6875 2.5C14.3423 2.5 14.0625 2.77982 14.0625 3.125C14.0625 3.47018 14.3423 3.75 14.6875 3.75Z" fill="#404040"/>
</svg>
