<svg width="16" height="20" viewBox="0 0 16 20" fill="none" xmlns="http://www.w3.org/2000/svg">
<path d="M11.529 9.78C12.7715 8.76759 13.5652 7.23241 13.5652 5.51724C13.5652 2.47517 11.0685 0 8 0C4.93148 0 2.43478 2.47517 2.43478 5.51724C2.43478 7.23241 3.22852 8.76759 4.47096 9.78C1.8247 11.0752 0 13.7786 0 16.8966V18.9655C0 19.5366 0.467478 20 1.04348 20H14.9565C15.5325 20 16 19.5366 16 18.9655V16.8966C16 13.7786 14.1753 11.0752 11.529 9.78ZM4.52174 5.51724C4.52174 3.61586 6.08209 2.06897 8 2.06897C9.91791 2.06897 11.4783 3.61586 11.4783 5.51724C11.4783 7.41862 9.91791 8.96552 8 8.96552C6.08209 8.96552 4.52174 7.41862 4.52174 5.51724ZM13.913 17.931H2.08696V16.8966C2.08696 13.6641 4.73948 11.0345 8 11.0345C11.2605 11.0345 13.913 13.6641 13.913 16.8966V17.931Z" fill="#404040"/>
</svg>
