<svg width="20" height="20" viewBox="0 0 20 20" fill="none" xmlns="http://www.w3.org/2000/svg">
<path d="M18.125 10.9375H16.1458C16.084 10.6376 15.9356 10.3623 15.7191 10.1458C15.5025 9.92926 15.2273 9.78092 14.9274 9.71909V9.375H15.2399C15.3228 9.375 15.4022 9.34208 15.4608 9.28347C15.5195 9.22487 15.5524 9.14538 15.5524 9.0625C15.5524 8.97962 15.5195 8.90013 15.4608 8.84153C15.4022 8.78292 15.3228 8.75 15.2399 8.75H13.9899C13.907 8.75 13.8275 8.78292 13.7689 8.84153C13.7103 8.90013 13.6774 8.97962 13.6774 9.0625C13.6774 9.14538 13.7103 9.22487 13.7689 9.28347C13.8275 9.34208 13.907 9.375 13.9899 9.375H14.3024V9.71909C14.0024 9.78091 13.7272 9.92926 13.5107 10.1458C13.2941 10.3623 13.1458 10.6376 13.084 10.9375H11.8833L11.7618 9.50241C11.721 9.01863 11.5203 8.5622 11.1914 8.20506C10.8625 7.84792 10.4242 7.61039 9.94537 7.52991L9.13513 7.3935V7.24925C9.42429 7.04813 9.66055 6.7801 9.82378 6.46798C9.98702 6.15586 10.0724 5.80891 10.0726 5.45669V5.08316C10.1555 5.08307 10.2352 5.05011 10.2937 4.99152C10.3522 4.93292 10.3851 4.85348 10.3851 4.77066V4.0625C10.3851 3.39946 10.1217 2.76357 9.65289 2.29473C9.18405 1.82589 8.54817 1.5625 7.88513 1.5625C7.22208 1.5625 6.5862 1.82589 6.11736 2.29473C5.64852 2.76357 5.38513 3.39946 5.38513 4.0625V4.77066C5.38513 4.85354 5.41805 4.93302 5.47665 4.99163C5.53526 5.05023 5.61475 5.08316 5.69763 5.08316V5.45669C5.69788 5.80891 5.78326 6.15585 5.94649 6.46797C6.10973 6.78008 6.34598 7.04812 6.63513 7.24925V7.3935L5.82459 7.52991C5.34581 7.61039 4.90743 7.84792 4.57856 8.20506C4.24968 8.56219 4.04901 9.01863 4.00819 9.50241L3.88669 10.9375H1.875C1.79212 10.9375 1.71263 10.9704 1.65403 11.029C1.59542 11.0876 1.5625 11.1671 1.5625 11.25V12.5C1.5625 12.5829 1.59542 12.6624 1.65403 12.721C1.71263 12.7796 1.79212 12.8125 1.875 12.8125H2.1875V18.125C2.1875 18.2079 2.22042 18.2874 2.27903 18.346C2.33763 18.4046 2.41712 18.4375 2.5 18.4375H17.5C17.5829 18.4375 17.6624 18.4046 17.721 18.346C17.7796 18.2874 17.8125 18.2079 17.8125 18.125V12.8125H18.125C18.2079 12.8125 18.2874 12.7796 18.346 12.721C18.4046 12.6624 18.4375 12.5829 18.4375 12.5V11.25C18.4375 11.1671 18.4046 11.0876 18.346 11.029C18.2874 10.9704 18.2079 10.9375 18.125 10.9375ZM14.6149 10.3125C14.8081 10.3131 14.9964 10.3735 15.154 10.4854C15.3115 10.5973 15.4306 10.7552 15.4948 10.9375H13.7349C13.7991 10.7552 13.9182 10.5973 14.0757 10.4854C14.2333 10.3735 14.4216 10.3131 14.6149 10.3125ZM11.1392 9.55522L11.2563 10.9375H9.23894L8.62378 9.61738L8.667 9.56534L8.862 9.68506C8.89908 9.70784 8.9405 9.72262 8.98363 9.72846C9.02675 9.7343 9.07061 9.73107 9.11241 9.71897C9.15421 9.70688 9.19302 9.68619 9.22637 9.65823C9.25971 9.63027 9.28684 9.59565 9.30603 9.55659L9.98103 8.18209C10.2922 8.26346 10.5705 8.43912 10.7779 8.68497C10.9853 8.93081 11.1115 9.2348 11.1392 9.55522ZM7.64134 9.23513L7.88509 9.08547L8.12862 9.23494L7.88487 9.52819L7.64134 9.23513ZM7.88509 8.24716L7.27278 7.55531C7.67236 7.67379 8.09773 7.67379 8.49731 7.55531L7.88509 8.24716ZM7.64494 10.2168C7.67426 10.2521 7.711 10.2805 7.75253 10.3C7.79407 10.3195 7.83939 10.3296 7.88527 10.3296C7.93114 10.3296 7.97646 10.3195 8.018 10.3C8.05953 10.2805 8.09627 10.2521 8.12559 10.2168L8.18203 10.1489L8.54953 10.9375H7.22044L7.58812 10.1485L7.64494 10.2168ZM9.34375 8.0625L8.89666 8.97281L8.36594 8.64719L8.94303 7.99503L9.34375 8.0625ZM6.01013 4.0625C6.01013 3.56522 6.20767 3.08831 6.5593 2.73667C6.91093 2.38504 7.38784 2.1875 7.88513 2.1875C8.38241 2.1875 8.85932 2.38504 9.21095 2.73667C9.56258 3.08831 9.76013 3.56522 9.76013 4.0625V4.40797C9.51214 4.34455 9.28129 4.22698 9.08416 4.06372C9.03774 4.02467 8.98093 4.00003 8.9207 3.99281C8.86048 3.9856 8.79945 3.99612 8.74512 4.02309C8.12256 4.33041 6.76178 4.43112 6.01013 4.45325V4.0625ZM6.32263 5.45669V5.06331C7.17628 5.04872 8.02363 4.91399 8.83972 4.66309C9.02656 4.79296 9.23135 4.89487 9.44763 4.96559V5.45669C9.44763 5.87109 9.28301 6.26852 8.98998 6.56154C8.69695 6.85457 8.29953 7.01919 7.88513 7.01919C7.47072 7.01919 7.0733 6.85457 6.78027 6.56154C6.48725 6.26852 6.32263 5.87109 6.32263 5.45669ZM6.82728 7.995L7.40447 8.64716L6.87347 8.97294L6.42634 8.0625L6.82728 7.995ZM4.63075 9.55522C4.65848 9.23481 4.78467 8.93083 4.99201 8.68499C5.19935 8.43915 5.47768 8.26348 5.78881 8.18209L6.46381 9.55659C6.48302 9.59563 6.51016 9.63023 6.5435 9.65818C6.57684 9.68614 6.61564 9.70683 6.65743 9.71893C6.69922 9.73104 6.74308 9.73429 6.78619 9.72849C6.82931 9.72268 6.87074 9.70794 6.90784 9.68522L7.10319 9.56534L7.14619 9.61706L6.53103 10.9375H4.51372L4.63075 9.55522ZM17.1875 17.8125H2.8125V12.8125H17.1875V17.8125ZM17.8125 12.1875H2.1875V11.5625H17.8125V12.1875Z" fill="#404040"/>
<path d="M3.75 16.5625H16.25C16.3329 16.5625 16.4124 16.5296 16.471 16.471C16.5296 16.4124 16.5625 16.3329 16.5625 16.25C16.5625 16.1671 16.5296 16.0876 16.471 16.029C16.4124 15.9704 16.3329 15.9375 16.25 15.9375H3.75C3.66712 15.9375 3.58763 15.9704 3.52903 16.029C3.47042 16.0876 3.4375 16.1671 3.4375 16.25C3.4375 16.3329 3.47042 16.4124 3.52903 16.471C3.58763 16.5296 3.66712 16.5625 3.75 16.5625Z" fill="#404040"/>
</svg>
