<svg width="20" height="20" viewBox="0 0 20 20" fill="none" xmlns="http://www.w3.org/2000/svg">
<path d="M18.125 15.3125H15.8799C15.9391 15.1544 15.953 14.9829 15.9201 14.8173C15.8872 14.6517 15.8088 14.4985 15.6937 14.375C15.8505 14.2046 15.9375 13.9815 15.9375 13.75C15.9375 13.5185 15.8505 13.2954 15.6937 13.125C15.8505 12.9546 15.9375 12.7315 15.9375 12.5C15.9375 12.2685 15.8505 12.0454 15.6937 11.875C15.8159 11.7411 15.8964 11.5744 15.9255 11.3954C15.9545 11.2165 15.9308 11.0329 15.8572 10.8672C15.7837 10.7014 15.6634 10.5607 15.5112 10.4622C15.3589 10.3637 15.1813 10.3117 15 10.3125H14.8088C15.1563 9.86123 15.3341 9.30205 15.3108 8.73291C15.3066 8.65611 15.2741 8.58357 15.2198 8.52918C15.1654 8.47479 15.0928 8.44237 15.016 8.43813C14.6655 8.42784 14.3164 8.48564 13.9879 8.60835C13.847 8.2255 13.6262 7.87703 13.3403 7.58607C13.2822 7.53085 13.2051 7.50005 13.1249 7.50005C13.0448 7.50005 12.9677 7.53085 12.9096 7.58607C12.6238 7.87699 12.4031 8.2253 12.262 8.60794C11.9336 8.48508 11.5844 8.42735 11.2339 8.43797C11.1571 8.44222 11.0846 8.47464 11.0302 8.52902C10.9758 8.58341 10.9434 8.65595 10.9391 8.73275C10.9158 9.30196 11.0936 9.8612 11.4412 10.3125H10.3125V6.875C10.3122 6.62645 10.2134 6.38815 10.0376 6.21239C9.86186 6.03664 9.62356 5.93778 9.375 5.9375H7.5V5.26813C7.76766 5.19925 8.0049 5.04353 8.17455 4.82535C8.34421 4.60717 8.43669 4.33888 8.4375 4.0625C8.4375 3.18238 7.54747 1.84844 7.44584 1.69922C7.41558 1.65938 7.37651 1.62709 7.3317 1.60485C7.28688 1.58261 7.23753 1.57104 7.1875 1.57104C7.13747 1.57104 7.08812 1.58261 7.0433 1.60485C6.99849 1.62709 6.95942 1.65938 6.92916 1.69922C6.82753 1.84844 5.9375 3.18238 5.9375 4.0625C5.93831 4.33888 6.03079 4.60717 6.20045 4.82535C6.3701 5.04353 6.60734 5.19925 6.875 5.26813V5.9375H5C4.75144 5.93778 4.51314 6.03664 4.33739 6.21239C4.16163 6.38815 4.06277 6.62645 4.0625 6.875V15.3125H1.875C1.79212 15.3125 1.71263 15.3454 1.65403 15.404C1.59542 15.4626 1.5625 15.5421 1.5625 15.625V16.25C1.56277 16.4986 1.66163 16.7369 1.83739 16.9126C2.01315 17.0884 2.25144 17.1872 2.5 17.1875H4.09409C4.16657 17.5401 4.35841 17.857 4.63728 18.0847C4.91615 18.3124 5.26498 18.437 5.625 18.4375H14.375C14.735 18.437 15.0839 18.3124 15.3627 18.0847C15.6416 17.857 15.8334 17.5401 15.9059 17.1875H17.5C17.7486 17.1872 17.9869 17.0884 18.1626 16.9126C18.3384 16.7369 18.4372 16.4986 18.4375 16.25V15.625C18.4375 15.5421 18.4046 15.4626 18.346 15.404C18.2874 15.3454 18.2079 15.3125 18.125 15.3125ZM6.5625 4.0625C6.5625 3.63344 6.90734 2.94282 7.1875 2.46369C7.46781 2.9425 7.8125 3.6325 7.8125 4.0625C7.8125 4.22826 7.74665 4.38723 7.62944 4.50444C7.51223 4.62165 7.35326 4.6875 7.1875 4.6875C7.02174 4.6875 6.86277 4.62165 6.74556 4.50444C6.62835 4.38723 6.5625 4.22826 6.5625 4.0625ZM8.75 15.3125C8.50136 15.3125 8.2629 15.2137 8.08709 15.0379C7.91127 14.8621 7.8125 14.6236 7.8125 14.375C7.8125 14.1264 7.91127 13.8879 8.08709 13.7121C8.2629 13.5363 8.50136 13.4375 8.75 13.4375H15C15.0829 13.4375 15.1624 13.4704 15.221 13.529C15.2796 13.5876 15.3125 13.6671 15.3125 13.75C15.3125 13.8329 15.2796 13.9124 15.221 13.971C15.1624 14.0296 15.0829 14.0625 15 14.0625H9.71175C9.62887 14.0625 9.54938 14.0954 9.49078 14.154C9.43217 14.2126 9.39925 14.2921 9.39925 14.375C9.39925 14.4579 9.43217 14.5374 9.49078 14.596C9.54938 14.6546 9.62887 14.6875 9.71175 14.6875H15C15.0829 14.6875 15.1624 14.7204 15.221 14.779C15.2796 14.8376 15.3125 14.9171 15.3125 15C15.3125 15.0829 15.2796 15.1624 15.221 15.221C15.1624 15.2796 15.0829 15.3125 15 15.3125H8.75ZM14.3094 9.93438C14.0703 10.1432 13.7705 10.2696 13.4541 10.2951C13.4797 9.9787 13.606 9.67882 13.8144 9.43941C14.0534 9.2303 14.3535 9.10381 14.6701 9.07869C14.6447 9.39521 14.5182 9.69518 14.3094 9.93438ZM13.125 8.29438C13.2685 8.48825 13.3738 8.7076 13.4354 8.94078C13.4144 8.95953 13.3927 8.97725 13.3725 8.9975C13.2767 9.09456 13.1935 9.20333 13.125 9.32122C13.0565 9.20333 12.9733 9.09456 12.8775 8.9975C12.8573 8.97725 12.8356 8.95953 12.8146 8.94072C12.8762 8.70756 12.9815 8.48822 13.125 8.29438ZM12.4356 9.43941C12.6446 9.6785 12.7711 9.97853 12.7963 10.2951C12.4798 10.2697 12.1798 10.1433 11.9406 9.93438C11.7317 9.69522 11.6053 9.39522 11.5799 9.07869C11.8964 9.10405 12.1964 9.23052 12.4356 9.43941ZM15 10.9375C15.0829 10.9375 15.1624 10.9704 15.221 11.029C15.2796 11.0876 15.3125 11.1671 15.3125 11.25C15.3125 11.3329 15.2796 11.4124 15.221 11.471C15.1624 11.5296 15.0829 11.5625 15 11.5625H9.71175C9.62887 11.5625 9.54938 11.5954 9.49078 11.654C9.43217 11.7126 9.39925 11.7921 9.39925 11.875C9.39925 11.9579 9.43217 12.0374 9.49078 12.096C9.54938 12.1546 9.62887 12.1875 9.71175 12.1875H15C15.0829 12.1875 15.1624 12.2204 15.221 12.279C15.2796 12.3376 15.3125 12.4171 15.3125 12.5C15.3125 12.5829 15.2796 12.6624 15.221 12.721C15.1624 12.7796 15.0829 12.8125 15 12.8125H8.75C8.50136 12.8125 8.2629 12.7137 8.08709 12.5379C7.91127 12.3621 7.8125 12.1236 7.8125 11.875C7.8125 11.6264 7.91127 11.3879 8.08709 11.2121C8.2629 11.0363 8.50136 10.9375 8.75 10.9375H15ZM4.6875 6.875C4.68757 6.79215 4.72052 6.7127 4.77911 6.65411C4.8377 6.59553 4.91714 6.56258 5 6.5625H9.375C9.45786 6.56258 9.5373 6.59553 9.59589 6.65411C9.65448 6.7127 9.68743 6.79215 9.6875 6.875V10.3125H8.75C8.42142 10.3115 8.10093 10.4144 7.83437 10.6065C7.56781 10.7987 7.36883 11.0702 7.26589 11.3822C7.16295 11.6942 7.16132 12.0308 7.26123 12.3439C7.36114 12.6569 7.55747 12.9303 7.82216 13.125C7.65556 13.2462 7.51494 13.3996 7.40862 13.576C7.3023 13.7525 7.23243 13.9485 7.20315 14.1524C7.17386 14.3563 7.18575 14.5641 7.23811 14.7633C7.29047 14.9626 7.38224 15.1493 7.508 15.3125H4.6875V6.875ZM14.375 17.8125H5.625C5.43176 17.8119 5.24343 17.7515 5.08589 17.6396C4.92834 17.5277 4.80929 17.3698 4.74509 17.1875H15.2549C15.1907 17.3698 15.0717 17.5277 14.9141 17.6396C14.7566 17.7515 14.5682 17.8119 14.375 17.8125ZM17.8125 16.25C17.8124 16.3329 17.7795 16.4123 17.7209 16.4709C17.6623 16.5295 17.5829 16.5624 17.5 16.5625H2.5C2.41714 16.5624 2.3377 16.5295 2.27911 16.4709C2.22052 16.4123 2.18757 16.3329 2.1875 16.25V15.9375H17.8125V16.25Z" fill="#404040"/>
</svg>
