<svg width="20" height="20" viewBox="0 0 20 20" fill="none" xmlns="http://www.w3.org/2000/svg">
<path d="M18.125 5.9375H15.9375V5.3125C15.9375 4.98098 15.8058 4.66304 15.5714 4.42862C15.337 4.1942 15.019 4.0625 14.6875 4.0625C14.356 4.0625 14.038 4.1942 13.8036 4.42862C13.5692 4.66304 13.4375 4.98098 13.4375 5.3125V5.9375H13.125V5.3125C13.125 4.98098 12.9933 4.66304 12.7589 4.42862C12.5245 4.1942 12.2065 4.0625 11.875 4.0625C11.5435 4.0625 11.2255 4.1942 10.9911 4.42862C10.7567 4.66304 10.625 4.98098 10.625 5.3125V5.9375H1.875C1.79212 5.9375 1.71263 5.97042 1.65403 6.02903C1.59542 6.08763 1.5625 6.16712 1.5625 6.25V9.7055C1.56248 9.76189 1.57774 9.81724 1.60664 9.86566C1.63555 9.91408 1.67704 9.95376 1.72669 9.9805C2.10352 10.1846 2.52291 10.2977 2.95128 10.3106C3.37966 10.3236 3.80511 10.236 4.19356 10.055C4.5568 10.2249 4.95292 10.3129 5.35392 10.3129C5.75493 10.3129 6.15104 10.2249 6.51428 10.055C6.87744 10.2249 7.27348 10.3129 7.67441 10.3129C8.07534 10.3129 8.47137 10.2249 8.83453 10.055C9.19799 10.2246 9.59421 10.3126 9.99531 10.3126C10.3964 10.3127 10.7927 10.2248 11.1562 10.0553C11.5195 10.2254 11.9157 10.3136 12.3169 10.3136C12.7181 10.3136 13.1143 10.2254 13.4776 10.0553C13.8412 10.2247 14.2374 10.3125 14.6386 10.3125C15.0397 10.3125 15.4359 10.2247 15.7995 10.0553C16.1862 10.2364 16.6098 10.3247 17.0367 10.3131C17.4635 10.3014 17.8817 10.1903 18.258 9.98844L18.2647 9.98506C18.3166 9.95911 18.3603 9.91921 18.3908 9.86983C18.4213 9.82045 18.4375 9.76355 18.4375 9.7055V6.25C18.4375 6.16712 18.4046 6.08763 18.346 6.02903C18.2874 5.97042 18.2079 5.9375 18.125 5.9375ZM10.625 9.58697C10.352 9.67182 10.0647 9.70105 9.78016 9.67292C9.49563 9.6448 9.21963 9.55989 8.9685 9.42322C8.92374 9.40225 8.87469 9.39205 8.82528 9.39343C8.77587 9.3948 8.72746 9.40773 8.68394 9.43116C8.37361 9.59873 8.02648 9.68647 7.6738 9.68647C7.32112 9.68647 6.97398 9.59873 6.66366 9.43116C6.6527 9.42528 6.64145 9.41998 6.62994 9.41528C6.58706 9.39847 6.54104 9.39118 6.49507 9.39392C6.44909 9.39666 6.40426 9.40937 6.36369 9.43116C6.05447 9.59876 5.70841 9.6868 5.35669 9.68734C5.00497 9.68789 4.65864 9.60092 4.34891 9.43428C4.30157 9.40734 4.24802 9.39324 4.19356 9.39337C4.16427 9.39339 4.13512 9.3974 4.10691 9.40528C4.08524 9.41164 4.0643 9.42023 4.04441 9.43091C3.76114 9.58399 3.44678 9.67068 3.12508 9.68442C2.80339 9.69815 2.48278 9.63858 2.1875 9.51019V6.5625H10.625V9.58697ZM11.25 5.3125C11.25 5.14674 11.3158 4.98777 11.4331 4.87056C11.5503 4.75335 11.7092 4.6875 11.875 4.6875C12.0408 4.6875 12.1997 4.75335 12.3169 4.87056C12.4342 4.98777 12.5 5.14674 12.5 5.3125V5.9375H11.25V5.3125ZM13.4375 9.39819C13.3987 9.40231 13.361 9.4137 13.3264 9.43175C13.0142 9.59985 12.6649 9.68736 12.3103 9.68635C11.9557 9.68534 11.6069 9.59584 11.2956 9.42597C11.2809 9.41941 11.2656 9.41406 11.25 9.40997V9.0625H13.4375V9.39819ZM13.4375 8.4375H11.25V7.8125H13.4375V8.4375ZM13.4375 7.1875H11.25V6.5625H13.4375V7.1875ZM14.0625 5.3125C14.0625 5.14674 14.1283 4.98777 14.2456 4.87056C14.3628 4.75335 14.5217 4.6875 14.6875 4.6875C14.8533 4.6875 15.0122 4.75335 15.1294 4.87056C15.2467 4.98777 15.3125 5.14674 15.3125 5.3125V5.9375H14.0625V5.3125ZM17.8125 9.51019C17.514 9.63991 17.1897 9.69965 16.8646 9.68484C16.5394 9.67003 16.2219 9.58107 15.9364 9.42475C15.8911 9.40319 15.8414 9.3926 15.7913 9.39381C15.7411 9.39503 15.6919 9.40802 15.6477 9.43175C15.162 9.6936 14.5931 9.75528 14.0625 9.60362V6.5625H17.8125V9.51019Z" fill="#404040"/>
<path d="M17.9767 11.3056C17.7697 11.4161 17.5459 11.4918 17.3142 11.5296C16.8422 11.5988 16.3605 11.5184 15.9365 11.2998C15.8912 11.2783 15.8415 11.2677 15.7913 11.2689C15.7412 11.2702 15.6921 11.2831 15.6478 11.3068C15.3357 11.475 14.9864 11.5626 14.6318 11.5616C14.2771 11.5606 13.9284 11.471 13.6172 11.301C13.5718 11.2787 13.5217 11.2677 13.4712 11.2687C13.4206 11.2697 13.371 11.2827 13.3266 11.3068C13.0143 11.4749 12.665 11.5624 12.3104 11.5614C11.9558 11.5604 11.6071 11.4709 11.2958 11.301C11.2503 11.2788 11.2001 11.2677 11.1495 11.2687C11.0989 11.2698 11.0492 11.2828 11.0046 11.3068C10.6915 11.4753 10.3412 11.5627 9.98556 11.5612C9.62996 11.5598 9.28038 11.4693 8.96865 11.2982C8.92386 11.2773 8.87483 11.2672 8.82543 11.2686C8.77603 11.2699 8.72763 11.2828 8.68409 11.3062C8.37376 11.4738 8.02662 11.5615 7.67394 11.5615C7.32127 11.5615 6.97413 11.4738 6.6638 11.3062C6.65285 11.3003 6.64159 11.295 6.63009 11.2903C6.58721 11.2735 6.54119 11.2662 6.49521 11.2689C6.44924 11.2717 6.40441 11.2844 6.36384 11.3062C6.05462 11.4738 5.70856 11.5618 5.35684 11.5624C5.00512 11.5629 4.65879 11.4759 4.34905 11.3093C4.31263 11.2887 4.27249 11.2756 4.23095 11.2706C4.18942 11.2656 4.14731 11.2689 4.10705 11.2803C4.08539 11.2867 4.06445 11.2953 4.04455 11.3059C3.73416 11.4738 3.38681 11.5617 3.03392 11.5617C2.68103 11.5616 2.33371 11.4736 2.02337 11.3056C1.98719 11.2852 1.94731 11.2722 1.90605 11.2674C1.8648 11.2626 1.823 11.2661 1.7831 11.2776C1.7432 11.2891 1.706 11.3085 1.67367 11.3346C1.64134 11.3607 1.61454 11.3929 1.59482 11.4295C1.57511 11.466 1.56288 11.5062 1.55885 11.5475C1.55482 11.5888 1.55907 11.6306 1.57135 11.6702C1.58363 11.7099 1.6037 11.7467 1.63038 11.7786C1.65706 11.8104 1.68982 11.8366 1.72674 11.8556C2.10354 12.0598 2.52294 12.1729 2.95133 12.1859C3.37972 12.1988 3.80518 12.1112 4.19362 11.9301C4.55683 12.1 4.95296 12.1881 5.35398 12.1881C5.75499 12.1881 6.15112 12.1 6.51434 11.9301C6.87749 12.1 7.27353 12.188 7.67446 12.188C8.07539 12.188 8.47143 12.1 8.83459 11.9301C9.19802 12.0998 9.59425 12.1878 9.99536 12.1878C10.3965 12.1879 10.7927 12.1 11.1562 11.9304C11.5195 12.1005 11.9158 12.1887 12.3169 12.1887C12.7181 12.1887 13.1144 12.1005 13.4777 11.9304C13.8412 12.0999 14.2375 12.1878 14.6386 12.1878C15.0397 12.1878 15.436 12.0999 15.7996 11.9304C16.1637 12.1003 16.5607 12.1884 16.9626 12.1886C17.4036 12.1641 17.8361 12.057 18.2376 11.8729C18.247 11.8689 18.2706 11.8573 18.2734 11.8558C18.3103 11.8367 18.3431 11.8106 18.3698 11.7787C18.3964 11.7469 18.4165 11.7101 18.4288 11.6704C18.4411 11.6307 18.4453 11.589 18.4413 11.5477C18.4373 11.5063 18.425 11.4662 18.4053 11.4296C18.3856 11.3931 18.3588 11.3608 18.3265 11.3347C18.2941 11.3087 18.2569 11.2893 18.217 11.2778C18.1771 11.2662 18.1353 11.2628 18.0941 11.2676C18.0528 11.2724 18.0129 11.2852 17.9767 11.3056Z" fill="#404040"/>
<path d="M17.9767 13.1806C17.7697 13.2911 17.5459 13.3668 17.3142 13.4046C16.8422 13.4738 16.3605 13.3934 15.9365 13.1748C15.8912 13.1533 15.8415 13.1427 15.7913 13.1439C15.7412 13.1452 15.6921 13.1581 15.6478 13.1818C15.3357 13.35 14.9864 13.4376 14.6318 13.4366C14.2771 13.4356 13.9284 13.346 13.6172 13.176C13.5718 13.1537 13.5217 13.1427 13.4712 13.1437C13.4206 13.1447 13.371 13.1577 13.3266 13.1818C13.0143 13.3499 12.665 13.4374 12.3104 13.4364C11.9558 13.4354 11.6071 13.3459 11.2958 13.176C11.2503 13.1538 11.2001 13.1427 11.1495 13.1437C11.0989 13.1448 11.0492 13.1578 11.0046 13.1818C10.6915 13.3503 10.3412 13.4377 9.98556 13.4362C9.62996 13.4348 9.28038 13.3443 8.96865 13.1732C8.92386 13.1523 8.87483 13.1422 8.82543 13.1436C8.77603 13.1449 8.72763 13.1578 8.68409 13.1812C8.37376 13.3488 8.02662 13.4365 7.67394 13.4365C7.32127 13.4365 6.97413 13.3488 6.6638 13.1812C6.65285 13.1753 6.64159 13.17 6.63009 13.1653C6.58721 13.1485 6.54119 13.1412 6.49521 13.1439C6.44924 13.1467 6.40441 13.1594 6.36384 13.1812C6.05462 13.3488 5.70856 13.4368 5.35684 13.4374C5.00512 13.4379 4.65879 13.3509 4.34905 13.1843C4.31263 13.1637 4.27249 13.1506 4.23095 13.1456C4.18942 13.1406 4.14731 13.1439 4.10705 13.1553C4.08539 13.1617 4.06445 13.1703 4.04455 13.1809C3.73416 13.3488 3.38681 13.4367 3.03392 13.4367C2.68103 13.4366 2.33371 13.3486 2.02337 13.1806C1.98719 13.1602 1.94731 13.1472 1.90605 13.1424C1.8648 13.1376 1.823 13.1411 1.7831 13.1526C1.7432 13.1641 1.706 13.1835 1.67367 13.2096C1.64134 13.2357 1.61454 13.2679 1.59482 13.3045C1.57511 13.341 1.56288 13.3812 1.55885 13.4225C1.55482 13.4638 1.55907 13.5056 1.57135 13.5452C1.58363 13.5849 1.6037 13.6217 1.63038 13.6536C1.65706 13.6854 1.68982 13.7116 1.72674 13.7306C2.10354 13.9348 2.52294 14.0479 2.95133 14.0609C3.37972 14.0738 3.80518 13.9862 4.19362 13.8051C4.55683 13.975 4.95296 14.0631 5.35398 14.0631C5.75499 14.0631 6.15112 13.975 6.51434 13.8051C6.87749 13.975 7.27353 14.063 7.67446 14.063C8.07539 14.063 8.47143 13.975 8.83459 13.8051C9.19802 13.9748 9.59425 14.0628 9.99536 14.0628C10.3965 14.0629 10.7927 13.975 11.1562 13.8054C11.5195 13.9755 11.9158 14.0637 12.3169 14.0637C12.7181 14.0637 13.1144 13.9755 13.4777 13.8054C13.8412 13.9749 14.2375 14.0628 14.6386 14.0628C15.0397 14.0628 15.436 13.9749 15.7996 13.8054C16.1637 13.9753 16.5607 14.0634 16.9626 14.0636C17.4036 14.0391 17.8361 13.932 18.2376 13.7479C18.247 13.7439 18.2706 13.7323 18.2734 13.7308C18.3103 13.7117 18.3431 13.6856 18.3698 13.6537C18.3964 13.6219 18.4165 13.5851 18.4288 13.5454C18.4411 13.5057 18.4453 13.464 18.4413 13.4227C18.4373 13.3813 18.425 13.3412 18.4053 13.3046C18.3856 13.2681 18.3588 13.2358 18.3265 13.2097C18.2941 13.1837 18.2569 13.1643 18.217 13.1528C18.1771 13.1412 18.1353 13.1378 18.0941 13.1426C18.0528 13.1474 18.0129 13.1602 17.9767 13.1806Z" fill="#404040"/>
<path d="M17.9767 15.0556C17.7697 15.1661 17.5459 15.2418 17.3142 15.2796C16.8422 15.3488 16.3605 15.2684 15.9365 15.0498C15.8912 15.0283 15.8415 15.0177 15.7913 15.0189C15.7412 15.0202 15.6921 15.0331 15.6478 15.0568C15.3357 15.225 14.9864 15.3126 14.6318 15.3116C14.2771 15.3106 13.9284 15.221 13.6172 15.051C13.5718 15.0287 13.5217 15.0177 13.4712 15.0187C13.4206 15.0197 13.371 15.0327 13.3266 15.0568C13.0143 15.2249 12.665 15.3124 12.3104 15.3114C11.9558 15.3104 11.6071 15.2209 11.2958 15.051C11.2503 15.0288 11.2001 15.0177 11.1495 15.0187C11.0989 15.0198 11.0492 15.0328 11.0046 15.0568C10.6915 15.2253 10.3412 15.3127 9.98556 15.3112C9.62996 15.3098 9.28038 15.2193 8.96865 15.0482C8.92386 15.0273 8.87483 15.0172 8.82543 15.0186C8.77603 15.0199 8.72763 15.0328 8.68409 15.0562C8.37376 15.2238 8.02662 15.3115 7.67394 15.3115C7.32127 15.3115 6.97413 15.2238 6.6638 15.0562C6.65285 15.0503 6.64159 15.045 6.63009 15.0403C6.58721 15.0235 6.54119 15.0162 6.49521 15.0189C6.44924 15.0217 6.40441 15.0344 6.36384 15.0562C6.05462 15.2238 5.70856 15.3118 5.35684 15.3124C5.00512 15.3129 4.65879 15.2259 4.34905 15.0593C4.31263 15.0387 4.27249 15.0256 4.23095 15.0206C4.18942 15.0156 4.14731 15.0189 4.10705 15.0303C4.08539 15.0367 4.06445 15.0453 4.04455 15.0559C3.73416 15.2238 3.38681 15.3117 3.03392 15.3117C2.68103 15.3116 2.33371 15.2236 2.02337 15.0556C1.98719 15.0352 1.94731 15.0222 1.90605 15.0174C1.8648 15.0126 1.823 15.0161 1.7831 15.0276C1.7432 15.0391 1.706 15.0585 1.67367 15.0846C1.64134 15.1107 1.61454 15.1429 1.59482 15.1795C1.57511 15.216 1.56288 15.2562 1.55885 15.2975C1.55482 15.3388 1.55907 15.3806 1.57135 15.4202C1.58363 15.4599 1.6037 15.4967 1.63038 15.5286C1.65706 15.5604 1.68982 15.5866 1.72674 15.6056C2.10354 15.8098 2.52294 15.9229 2.95133 15.9359C3.37972 15.9488 3.80518 15.8612 4.19362 15.6801C4.55683 15.85 4.95296 15.9381 5.35398 15.9381C5.75499 15.9381 6.15112 15.85 6.51434 15.6801C6.87749 15.85 7.27353 15.938 7.67446 15.938C8.07539 15.938 8.47143 15.85 8.83459 15.6801C9.19802 15.8498 9.59425 15.9378 9.99536 15.9378C10.3965 15.9379 10.7927 15.85 11.1562 15.6804C11.5195 15.8505 11.9158 15.9387 12.3169 15.9387C12.7181 15.9387 13.1144 15.8505 13.4777 15.6804C13.8412 15.8499 14.2375 15.9378 14.6386 15.9378C15.0397 15.9378 15.436 15.8499 15.7996 15.6804C16.1637 15.8503 16.5607 15.9384 16.9626 15.9386C17.4036 15.9141 17.8361 15.807 18.2376 15.6229C18.247 15.6189 18.2706 15.6073 18.2734 15.6058C18.3103 15.5867 18.3431 15.5606 18.3698 15.5287C18.3964 15.4969 18.4165 15.4601 18.4288 15.4204C18.4411 15.3807 18.4453 15.339 18.4413 15.2977C18.4373 15.2563 18.425 15.2162 18.4053 15.1796C18.3856 15.1431 18.3588 15.1108 18.3265 15.0847C18.2941 15.0587 18.2569 15.0393 18.217 15.0278C18.1771 15.0162 18.1353 15.0128 18.0941 15.0176C18.0528 15.0224 18.0129 15.0352 17.9767 15.0556Z" fill="#404040"/>
</svg>
