<svg width="25.6" height="32" viewBox="0 0 25.6 32" fill="none" xmlns="http://www.w3.org/2000/svg"><path d="M12.8 0C5.739 0 0 5.551 0 12.373c0 2.351.661 4.847 1.969 7.415 1.033 2.033 2.47 4.117 4.273 6.199a44 44 0 0 0 6.195 5.892.61.61 0 0 0 .725 0c.128-.096 3.136-2.362 6.195-5.892 1.803-2.08 3.241-4.166 4.273-6.199 1.307-2.568 1.97-5.064 1.97-7.415C25.6 5.551 19.859 0 12.8 0m0 7.667c2.688 0 4.868 2.106 4.868 4.706s-2.18 4.706-4.868 4.706-4.87-2.107-4.87-4.706c0-2.602 2.182-4.706 4.87-4.706" fill="#FF4A4A"/></svg>